<?xml version="1.0" encoding="UTF-8"?>
<svg id="Layer_1" data-name="Layer 1" xmlns="http://www.w3.org/2000/svg" viewBox="0 0 647.78 262.58">
  <defs>
    <style>
      .cls-1 {
        fill: #614b79;
      }

      .cls-1, .cls-2, .cls-3 {
        fill-rule: evenodd;
      }

      .cls-1, .cls-2, .cls-3, .cls-4 {
        stroke-width: 0px;
      }

      .cls-2 {
        fill: #e0467b;
      }

      .cls-3 {
        fill: #fdda24;
      }

      .cls-4 {
        fill: #614b79;
      }
    </style>
  </defs>
  <path class="cls-4" d="m319.31,68.39c-.37-1.05-1.36-1.75-2.47-1.75h-17.93c-1.11,0-2.1.7-2.47,1.75l-38.22,108.56c-.6,1.71.66,3.49,2.47,3.49h15.72c1.13,0,2.14-.73,2.49-1.8l8.43-25.57c.35-1.07,1.36-1.8,2.49-1.8h36.12c1.13,0,2.13.73,2.49,1.8l8.43,25.57c.35,1.07,1.36,1.8,2.49,1.8h15.72c1.81,0,3.07-1.79,2.47-3.49l-38.22-108.56Zm-.24,66.05h-22.55c-1.79,0-3.05-1.75-2.49-3.45l8.96-27.01c2.24-6.41,4.81-17.63,4.81-17.63h.32s2.4,11.22,4.49,17.63l8.96,27.01c.56,1.7-.7,3.45-2.49,3.45Z"/>
  <path class="cls-4" d="m463.63,96.77c-24.84,0-44.88,17.79-44.88,42.8s20.04,42.8,45.04,42.8,44.88-17.63,44.88-42.8-20.04-42.8-45.04-42.8Zm.16,68.28c-13.3,0-24.36-10.26-24.36-25.48s11.06-25.48,24.36-25.48,24.2,10.42,24.2,25.48-11.06,25.48-24.2,25.48Z"/>
  <path class="cls-4" d="m408.07,163.27c-.3.01-.62.02-.96.02-5.61,0-16.19-1.92-16.19-15.39v-27.82c0-1.45,1.18-2.63,2.63-2.63h13.34c1.45,0,2.63-1.18,2.63-2.63v-10.93c0-1.45-1.18-2.63-2.63-2.63h-13.34c-1.45,0-2.63-1.18-2.63-2.63v-14.67c0-1.45-1.17-2.63-2.62-2.63l-14.62.32c-1.45,0-2.63,1.18-2.63,2.63v14.35c0,1.45-1.18,2.63-2.63,2.63h-5.8c-1.45,0-2.63,1.18-2.63,2.63v10.93c0,1.45,1.18,2.63,2.63,2.63h5.32c1.45,0,2.63,1.18,2.63,2.63v30.38c0,27.41,22.6,30.77,33.98,30.77,1.54,0,2.84-.08,3.85-.17,1.36-.12,2.4-1.25,2.4-2.62v-12.56c0-1.49-1.24-2.69-2.73-2.62Z"/>
  <path class="cls-4" d="m631.84,103.86c-5.75-3.9-12.75-6.2-20.19-6.2h-1.31c-4.96,0-9.74,1.02-14.06,2.86-3.48,1.48-6.67,3.49-9.48,5.92-1.01.87-2.49.84-3.47-.06-1.27-1.15-2.61-2.22-4.04-3.18-5.75-3.9-12.74-6.2-20.19-6.2h-1.31c-4.96,0-9.74,1.02-14.06,2.86-6.49,2.76-11.98,7.33-15.87,13.08-3.9,5.75-6.2,12.75-6.2,20.19v44.67c0,1.45,1.18,2.63,2.63,2.63h15.77c1.45,0,2.63-1.18,2.63-2.63v-44.67c0-2.09.42-4.04,1.18-5.84,1.14-2.7,3.09-5.05,5.52-6.69,2.44-1.64,5.28-2.58,8.41-2.58h1.31c2.09,0,4.04.42,5.84,1.18,2.7,1.14,5.05,3.09,6.69,5.52,1.64,2.44,2.58,5.28,2.58,8.41v44.67c0,1.45,1.18,2.63,2.63,2.63h15.77c1.45,0,2.63-1.18,2.63-2.63v-44.01c0-2.09.42-4.04,1.19-5.84,1.14-2.7,3.09-5.05,5.52-6.69,2.44-1.64,5.28-2.58,8.41-2.58h1.31c2.09,0,4.04.42,5.84,1.18,2.7,1.14,5.05,3.09,6.69,5.52,1.64,2.44,2.58,5.28,2.58,8.41v44.01c0,1.45,1.18,2.63,2.63,2.63h15.77c1.45,0,2.63-1.18,2.63-2.63v-44.01c0-4.96-1.02-9.73-2.86-14.06-2.76-6.49-7.33-11.98-13.08-15.87Z"/>
  <path class="cls-3" d="m121.39,28.63c.04-.67.06-1.24.06-1.61,0-1.98-.22-3.94-.67-5.87-.1-.46-.22-.93-.36-1.42-.5-1.7-1-3.04-1.69-4.43-.72-1.36-1.29-2.34-1.9-3.23-.12-.18-.24-.33-.36-.5-.53-.74-1.06-1.42-1.61-2.04-.18-.22-.37-.44-.56-.65-.65-.7-1.28-1.31-1.88-1.85-.18-.16-.36-.32-.54-.47-.75-.64-1.41-1.15-1.96-1.53-.35-.24-.45-.31-.52-.36-.21-.13-.41-.24-.61-.36-.58-.37-1.15-.72-1.7-1.01-.87-.45-1.59-.8-2.27-1.08-.84-.35-1.51-.6-2.1-.79-.39-.13-.57-.19-.71-.23-.18-.05-.35-.08-.53-.13-.62-.17-1.22-.32-1.81-.44-.17-.04-.35-.07-.52-.1-.61-.12-1.2-.2-1.76-.27-.48-.06-.95-.11-1.42-.14-.39-.03-.79-.06-1.15-.07-.31-.01-.63-.02-.94-.02-1.56-.02-2.97.11-4.48.35l-.39.07c-2.27.4-4.75,1.13-7.19,2.25-.42.18-.77.36-1.19.57l-.39.21c-.48.26-1.04.59-1.66.98-1.34.88-2.7,1.88-4.05,3.13-.16.15-.3.29-.45.43-.16.16-.33.3-.49.47-.75.82-1.23,1.35-1.62,1.81-.18.21-.32.42-.49.63-.72.94-1.21,1.65-1.64,2.36-.28.45-.44.76-.61,1.08-.53.95-.94,1.78-1.18,2.31-.23.53-.47,1.06-.69,1.57-1.49,3.41-3.24,7.4-4.7,10.72-.12.28-.26.59-.37.85-.1.22-.21.47-.31.71-.53,1.2-1.11,2.53-1.67,3.82-.33.76-.66,1.49-.94,2.15-.22.49-.46,1.05-.69,1.58-1.69,3.85-3.7,8.46-5.28,12.06-1.55,3.54-3.52,8.03-5.2,11.89-.32.72-.64,1.47-.94,2.14-.54,1.23-1.18,2.68-1.8,4.11-.47,1.07-.93,2.13-1.34,3.05-.88,2.01-1.9,4.34-2.93,6.69-.68,1.56-1.37,3.12-2.03,4.63-.51,1.16-1,2.28-1.45,3.32-.47,1.07-.98,2.23-1.5,3.42-1.69,3.87-3.59,8.19-5.1,11.64-.12.27-.25.57-.37.86-.95,2.18-2.1,4.8-3,6.84-1.59,3.63-3.58,8.17-5.35,12.23-.54,1.22-1.06,2.42-1.54,3.51-1.51,3.45-3.38,7.72-5.1,11.65-.12.28-.25.57-.37.85-.57,1.3-1.12,2.56-1.63,3.72-1.09,2.49-2.55,5.81-3.63,8.3-2.23,5.09-5.2,11.88-7.43,16.98-.66,1.66-1.12,2.86-1.49,4.17-.4,1.38-.67,2.8-.98,5.04-.14,1.09-.2,2.2-.18,3.04.02,1.61.1,3.2.33,4.77.06.48.24,1.71.68,3.39.16.65.35,1.29.61,2.04.24.7.39,1.1.57,1.58.59,1.58,1.37,3.03,1.98,4.08.42.72.65,1.11.79,1.33.22.34.54.8.86,1.25.38.54.85,1.13,1.37,1.76.14.17.27.34.41.5.29.34.61.67.94,1.03.54.57,1.06,1.09,1.58,1.57.16.14.29.28.45.42,1.62,1.45,3.06,2.45,3.97,3.02,1.14.7,2,1.2,2.8,1.59,1.8.9,3.67,1.58,3.69,1.59.22.08.43.11.65.18,4.63,1.57,8.58,1.8,10.93,1.71.23,0,.41-.03.61-.03.6-.03,1.22-.08,1.86-.14.76-.07,1.47-.16,2.16-.27.47-.08.94-.15,1.43-.24.51-.11.97-.23,1.44-.35.33-.08.65-.16.99-.25.73-.22,1.39-.43,1.99-.65.93-.34,1.57-.6,2.07-.83l.35-.18c.24-.11.49-.24.74-.36.62-.3,1.2-.61,1.75-.92.17-.1.34-.19.51-.29.93-.54,1.74-1.07,2.46-1.58,2.04-1.46,3.25-2.61,3.84-3.22,1.3-1.31,2.08-2.23,2.34-2.57.59-.73,1.15-1.49,1.84-2.54.18-.27.34-.51.52-.79.35-.56.57-.95.77-1.32.1-.18.19-.36.29-.55.11-.21.22-.42.32-.63.52-1.06.95-2.06,1.25-2.8l17.66-46.92c13.53-35.96,28.07-74.6,39.9-106.05l.22-.68c.79-2.41.84-2.63,1.13-4.29.14-.81.22-1.54.28-2.22.02-.25.03-.5.05-.74Z"/>
  <path class="cls-1" d="m196.83,221.15c-.15-1.86-.56-4.33-.97-6.16-.32-1.45-.99-3.33-1.46-4.75-.42-1.1-.87-2.31-1.33-3.52-1.44-3.81-3.01-7.98-4.47-11.84-.55-1.45-1.08-2.87-1.57-4.17-1.06-2.81-2.48-6.57-3.54-9.38-1.49-3.96-3.35-8.87-5.04-13.34-.62-1.65-1.22-3.25-1.77-4.7-1.47-3.88-3.3-8.75-4.95-13.11-.53-1.41-1.05-2.77-1.52-4.03-.49-1.3-1.07-2.83-1.64-4.35-.52-1.37-1.03-2.73-1.47-3.9-1.8-4.78-4.2-11.14-6-15.91-1.72-4.55-4-10.61-5.72-15.16-.83-2.2-1.93-5.12-2.76-7.32-1.17-3.1-2.62-6.94-3.94-10.45-.49-1.29-.96-2.55-1.39-3.69-1.53-4.05-3.57-9.45-5.1-13.51-.74-1.96-1.73-4.58-2.47-6.54-.35-.93-.73-1.93-1.12-2.97-.82-2.18-1.7-4.52-2.53-6.7-.39-1.04-.77-2.04-1.12-2.97v.03s0-.03,0-.03c-.65-1.57-1.13-2.75-2.02-4.3l-.05-.1c-.18-.32-.42-.69-.65-1.05-.1-.17-.18-.3-.29-.48l-.03-.04c-.45-.68-.91-1.35-1.35-1.9l-.35-.38c-.95-1.18-1.9-2.25-2.81-3.11l-.32-.27c-1.29-1.18-2.49-2.09-3.33-2.71h-.01s-.01-.01-.01-.01c-.88-.65-2.53-1.68-4.85-2.71-.26-.12-.53-.25-.79-.36-.21-.09-.46-.17-.68-.26-.76-.3-1.5-.56-2.22-.79-.17-.05-.29-.11-.46-.16-1.28-.39-2.53-.64-3.68-.82h-.05c-.52-.09-1.02-.15-1.49-.2-1.39-.15-2.56-.19-3.35-.18h-.05c-.36,0-1.4,0-2.85.14-.26.02-.51.05-.75.08l-.32.04-.35.05-.42.06c-.39.06-.78.13-1.11.19l-.15.04c-.54.1-1.03.21-1.49.33l-.16.04c-.9.18-1.98.56-2.99.95-.16.06-.3.11-.48.16-.65.23-1.49.61-2.37,1.06-.56.27-1.07.53-1.58.83l-.03.02c-.34.19-.71.4-.96.55-.3.18-.71.44-1.18.76l-.19.14c-.47.32-.97.69-1.52,1.12l-.18.14c-.13.11-.33.29-.49.42-.9.74-1.83,1.57-2.68,2.48-.35.37-.59.7-.9,1.05-.5.57-1,1.17-1.5,1.85-.56.75-1.03,1.44-1.43,2.1l-.24.36c-.09.16-.15.3-.24.46-.44.79-.84,1.53-1.17,2.19-.08.16-.16.36-.24.54l-.11.23c-.35.8-.71,1.69-.94,2.43l-.04.16c-.61,1.86-.91,3.39-1.11,4.45l-.03.21c-.1.67-.22,1.58-.3,2.67-.09,1.07-.13,2.07-.07,3.34v.09c.06,1.42.17,2.37.34,3.38.17,1.02.38,1.97.63,3.06l.03.12v.06s43.35,161.96,43.35,161.96v-.03s0,.02,0,.02h0c.97,3.53,2.03,5.82,2.33,6.44,1.52,3.12,2.99,5.55,4.34,7.23,1.91,2.36,3.29,4.06,6.18,6.48,3.35,2.8,6.34,4.35,7.46,4.94,6.91,3.59,15.24,5.08,22.84,4.08,1.7-.22,6.21-.81,11.56-3.28,5.12-2.36,8.26-5.13,9.95-6.62,3.47-3.08,6.07-6.99,7.62-9.73,2.49-4.37,3.52-8.75,3.95-10.62.73-3.1,1.01-7.27.72-10.87"/>
  <path class="cls-2" d="m186.93,123.28v-.07c.09-.98.15-2.02.16-3.16v-.14s-.01-.35-.01-.35c0-.81-.03-1.58-.08-2.33-.02-.32-.04-.62-.07-.92-.04-.44-.08-.86-.13-1.27-.04-.38-.09-.75-.13-1.09v-.07c-.13-.75-.24-1.39-.36-1.93-.38-1.9-.81-3.27-1.01-3.88-.1-.3-.24-.69-.36-1.04-.79-2.34-1.61-4.15-2.51-5.78-.16-.3-.34-.61-.52-.93-.52-.9-1.07-1.78-1.66-2.71,0-.02-.96-1.48-2.5-3.31l-.29-.35c-.19-.23-.4-.46-.61-.7-.32-.36-.63-.7-.92-1.02-.15-.16-.29-.31-.43-.45-1.6-1.64-2.84-2.65-3.24-2.97l-.03-.02s-.9-.75-2.29-1.75c-1.02-.76-1.63-1.16-2.82-1.88l-.1-.06-.09-.06c-.42-.25-.88-.51-1.37-.77-2.12-1.17-3.76-1.87-4.28-2.08h0c-1.5-.67-4.24-1.56-6.77-2.19-.17-.04-.33-.08-.5-.12-.99-.24-1.92-.43-2.73-.54-.72-.12-1.42-.19-2.12-.27-.33-.04-.62-.07-.96-.1-.22-.02-.45-.06-.67-.07-.23-.02-.49-.02-.73-.04-.27-.02-.58-.06-.82-.06-.62,0-1.45-.02-2.35-.01-.3,0-.6,0-.91,0-1.37.02-2.87.1-4.22.29l-.33.05c-1.38.17-2.83.43-4.33.78-.71.16-1.4.32-2.02.49-2.58.73-2.74.8-6.84,2.52h-.02s.02,0,.02,0l-76.08,35.39-.06.04-.22.11c-.62.31-1.2.61-1.74.9-.44.23-.86.47-1.27.7l-.05.03c-.45.27-.9.54-1.35.85l-.26.17c-.33.23-.68.48-1.05.76-.17.13-.33.23-.52.37-.15.12-.28.25-.43.37-.43.34-.89.72-1.4,1.15-.03.02-3,2.53-5.37,6.05-.12.18-.21.36-.33.54-1.95,2.95-2.97,5.45-3.34,6.52-.06.16-.12.37-.18.53l-.13.4c-.14.41-.27.86-.42,1.35-.13.46-.26.9-.36,1.33-.05.22-.1.42-.15.65-.53,2.39-.69,4.42-.7,5.83h0c-.15,5.32,1.12,9.3,1.37,10.05.22.65.46,1.32.72,2.02l.1.3c.15.39.32.75.49,1.12.1.23.19.45.29.68.25.53.51,1.03.78,1.52.18.34.38.69.59,1.05.38.64.76,1.24,1.13,1.8l.21.33.14.19c1.38,1.97,2.61,3.28,2.99,3.67l.26.25c1.53,1.59,2.85,2.7,3.53,3.2.27.2.63.46.98.71.17.12.33.24.5.37.59.41,1.27.86,2.04,1.33.56.34,1.14.64,1.71.93.37.2.73.39,1.14.59l.19.1c.53.24,1.34.59,2.35.98l.35.15c.88.32,2.72.99,5.39,1.53.22.05.47.08.71.12h.03c.37.07.75.12,1.15.18,1.14.17,2.34.31,3.63.37h0c.76.02,1.43.02,2.05.01h.26c1.66-.02,2.92-.13,4.19-.32,1.01-.13,2.1-.32,3.54-.66h.04s82.1-19.88,82.1-19.88h-.03s.04,0,.04,0c.15-.03.29-.09.43-.12l.09-.03c-.18.05-.35.11-.53.15.98-.28,2.32-.58,3.28-.92.23-.08.49-.18.74-.27.94-.31,1.93-.7,2.97-1.13.59-.25,1.17-.5,1.67-.74l.33-.17.14-.07.16-.09c4.55-2.32,7.04-4.32,8.12-5.19l.24-.21.12-.08c.19-.16.35-.34.54-.51.98-.84,1.89-1.69,2.73-2.55.37-.39.72-.78,1.08-1.18.66-.73,1.28-1.45,1.84-2.17.35-.45.71-.89,1.04-1.35.83-1.14,1.56-2.26,2.18-3.31.12-.19.22-.39.32-.59,1.76-3.11,2.69-5.67,3.06-6.85.11-.36.23-.75.35-1.16l.1-.35c.56-1.92,1.14-4.32,1.41-7.49Z"/>
</svg>