<svg xmlns="http://www.w3.org/2000/svg" viewBox="0 0 146.082 37.029">
  <path fill="#614b79" d="M36.884 33.424h-.529v-.65h.529v-.2a1.441 1.441 0 0 1 1.594-1.564 1.757 1.757 0 0 1 .31.025v.69a1.253 1.253 0 0 0-.21-.016.8.8 0 0 0-.889.883v.183h1.006v.65h-1.006v3.5h-.8Zm4.402-.806a2.206 2.206 0 1 1-2.29 2.2 2.206 2.206 0 0 1 2.29-2.2Zm0 3.71a1.507 1.507 0 1 0-1.46-1.514 1.46 1.46 0 0 0 1.46 1.514Zm3.085-3.611h.789v.733c0 .174-.016.317-.016.317h.016a1.445 1.445 0 0 1 1.341-1.1 1.522 1.522 0 0 1 .21.016v.8a1.191 1.191 0 0 0-.235-.025 1.286 1.286 0 0 0-1.19.991 2.553 2.553 0 0 0-.1.756v1.723h-.814Zm5.079-1.697h1.081v5.908H49.45Zm1.92 1.664h1.024v.491a2.751 2.751 0 0 1-.016.292h.016a1.661 1.661 0 0 1 1.517-.883c.946 0 1.485.491 1.485 1.614v2.73H54.34v-2.513c0-.516-.135-.865-.68-.865a1.18 1.18 0 0 0-1.149.865 1.762 1.762 0 0 0-.075.566v1.947H51.37v-4.244Zm4.987.907h-.554v-.84h.579v-1.222h1.04v1.222h.971v.84h-.971v1.648a.757.757 0 0 0 .846.8 1.037 1.037 0 0 0 .194-.016v.924a1.847 1.847 0 0 1-.326.025 1.558 1.558 0 0 1-1.776-1.6v-1.781Zm4.68-1.007a1.842 1.842 0 0 1 1.9 2.015c0 .125-.025.407-.025.407h-2.956a1.213 1.213 0 0 0 1.284 1.123 2.119 2.119 0 0 0 1.231-.466l.41.758a2.687 2.687 0 0 1-1.72.607 2.184 2.184 0 0 1-2.3-2.223 2.1 2.1 0 0 1 2.176-2.221Zm.821 1.7a.821.821 0 0 0-.846-.883 1 1 0 0 0-1.024.883Zm1.617-1.6h1.024v.733a2.972 2.972 0 0 1-.016.3h.016a1.47 1.47 0 0 1 1.359-1.091 1.316 1.316 0 0 1 .194.016v1.041a1.948 1.948 0 0 0-.251-.016 1.208 1.208 0 0 0-1.165.89 2.29 2.29 0 0 0-.091.69v1.682H63.48v-4.244Zm2.96 0h1.024v.491a2.751 2.751 0 0 1-.016.292h.016a1.617 1.617 0 0 1 1.391-.883 1.178 1.178 0 0 1 1.25.874h.016a1.676 1.676 0 0 1 1.46-.874c.889 0 1.4.5 1.4 1.614v2.73h-1.065v-2.534c0-.482-.091-.849-.586-.849a1.11 1.11 0 0 0-1.031.964 2.319 2.319 0 0 0-.05.55v1.865h-1.065v-2.53c0-.457-.075-.849-.579-.849a1.128 1.128 0 0 0-1.049.973 2.241 2.241 0 0 0-.05.541v1.865h-1.066Zm9.185-.1a1.842 1.842 0 0 1 1.9 2.015c0 .125-.025.407-.025.407h-2.956a1.213 1.213 0 0 0 1.284 1.123 2.119 2.119 0 0 0 1.231-.466l.41.758a2.687 2.687 0 0 1-1.719.607 2.184 2.184 0 0 1-2.3-2.223 2.105 2.105 0 0 1 2.175-2.221Zm.823 1.7a.821.821 0 0 0-.846-.883 1 1 0 0 0-1.024.883Zm3.428-1.7a1.339 1.339 0 0 1 1.231.541h.016s-.009-.109-.009-.242V31.02h1.065v5.908h-1.006v-.349a2.208 2.208 0 0 1 .016-.274h-.016a1.485 1.485 0 0 1-1.341.724 1.962 1.962 0 0 1-1.9-2.223 1.989 1.989 0 0 1 1.944-2.222Zm.2 3.554c.554 0 1.074-.4 1.074-1.34 0-.659-.351-1.306-1.065-1.306-.586 0-1.074.475-1.074 1.315.001.806.439 1.333 1.066 1.333Zm2.943-5.118h1.056v.939h-1.056Zm0 1.664h1.065v4.244h-1.065Zm4.075 1.582h.144v-.059c0-.557-.351-.749-.821-.749a2.307 2.307 0 0 0-1.174.407l-.4-.758a2.9 2.9 0 0 1 1.676-.523 1.581 1.581 0 0 1 1.777 1.689v2.655h-.986v-.349a2.756 2.756 0 0 1 .016-.3h-.016a1.381 1.381 0 0 1-1.3.749 1.34 1.34 0 0 1-1.45-1.324c.002-1.348 1.838-1.438 2.534-1.438Zm-.814 1.938a1.1 1.1 0 0 0 .965-1.116v-.1h-.185c-.545 0-1.425.075-1.425.666a.569.569 0 0 0 .645.55Zm2.616-3.52h1.024v.733a2.972 2.972 0 0 1-.016.3h.016a1.47 1.47 0 0 1 1.359-1.091 1.317 1.317 0 0 1 .194.016v1.041a1.949 1.949 0 0 0-.251-.016 1.208 1.208 0 0 0-1.165.89 2.289 2.289 0 0 0-.094.69v1.682h-1.065v-4.244Zm3.126-1.664h1.056v.939h-1.056Zm0 1.664h1.065v4.244h-1.065Zm3.772-.1a1.842 1.842 0 0 1 1.9 2.015c0 .125-.025.407-.025.407h-2.956a1.213 1.213 0 0 0 1.284 1.123 2.119 2.119 0 0 0 1.231-.466l.411.758a2.687 2.687 0 0 1-1.719.607 2.184 2.184 0 0 1-2.3-2.223 2.1 2.1 0 0 1 2.174-2.221Zm.823 1.7a.821.821 0 0 0-.846-.883 1 1 0 0 0-1.024.883Zm1.911 1.379a1.8 1.8 0 0 0 1.165.466c.3 0 .561-.134.561-.383 0-.632-2.08-.55-2.08-1.915 0-.79.714-1.247 1.635-1.247a2.06 2.06 0 0 1 1.435.482l-.395.783a1.631 1.631 0 0 0-1.049-.367c-.276 0-.545.115-.545.383 0 .6 2.08.525 2.08 1.89 0 .709-.62 1.274-1.635 1.274a2.4 2.4 0 0 1-1.66-.625Zm47.496-10.798-5.195-5.7v-.045l4.727-4.276a.364.364 0 0 0-.287-.591h-.894a.378.378 0 0 0-.29.138l-4.447 3.989a.371.371 0 0 1-.271.138.364.364 0 0 1-.347-.362v-8.29a.366.366 0 0 0-.367-.364l-.789.02a.366.366 0 0 0-.367.364v15.183a.366.366 0 0 0 .367.364h.789a.366.366 0 0 0 .367-.364v-4.874a.346.346 0 0 1 .639-.2l4.83 5.277a.367.367 0 0 0 .306.163h.924a.363.363 0 0 0 .305-.57ZM44.717 9.645a.374.374 0 0 0-.351-.247h-2.545a.374.374 0 0 0-.351.247l-5.428 15.3a.369.369 0 0 0 .351.491h2.233a.372.372 0 0 0 .353-.254l1.2-3.6a.372.372 0 0 1 .353-.254h5.129a.372.372 0 0 1 .353.254l1.2 3.6a.372.372 0 0 0 .354.254h2.226a.369.369 0 0 0 .351-.491Zm-.034 9.311h-3.2a.371.371 0 0 1-.353-.487l1.272-3.808c.319-.9.682-2.486.682-2.486h.046s.342 1.582.636 2.486l1.272 3.808a.37.37 0 0 1-.355.483Zm21.144-5.313a6.042 6.042 0 1 0 6.4 6.033 6.084 6.084 0 0 0-6.4-6.033Zm.023 9.625a3.6 3.6 0 1 1 3.437-3.592 3.442 3.442 0 0 1-3.437 3.592Zm-7.912-.252h-.137a2.057 2.057 0 0 1-2.3-2.169v-3.921a.373.373 0 0 1 .374-.371h1.893a.373.373 0 0 0 .374-.371v-1.542a.373.373 0 0 0-.374-.371h-1.893a.373.373 0 0 1-.374-.371v-2.069a.373.373 0 0 0-.374-.371l-2.078.045a.373.373 0 0 0-.374.371V13.9a.373.373 0 0 1-.374.371h-.823a.373.373 0 0 0-.374.371v1.54a.373.373 0 0 0 .374.371h.755a.373.373 0 0 1 .374.371v4.283c0 3.864 3.209 4.337 4.826 4.337.219 0 .4-.011.547-.023a.371.371 0 0 0 .34-.369v-1.77a.364.364 0 0 0-.382-.366Zm31.778-8.375a5.133 5.133 0 0 0-2.867-.874h-.187a5.147 5.147 0 0 0-2 .4 5.071 5.071 0 0 0-1.345.835.372.372 0 0 1-.493-.009 5.115 5.115 0 0 0-3.439-1.322h-.187a5.137 5.137 0 0 0-4.249 2.248 5.043 5.043 0 0 0-.88 2.845v6.3a.373.373 0 0 0 .374.371h2.241a.373.373 0 0 0 .374-.371v-6.3a2.073 2.073 0 0 1 .169-.824 2.168 2.168 0 0 1 .785-.942 2.13 2.13 0 0 1 1.193-.364h.187a2.1 2.1 0 0 1 .828.168 2.161 2.161 0 0 1 .949.779 2.093 2.093 0 0 1 .367 1.184v6.3a.373.373 0 0 0 .374.371h2.239a.373.373 0 0 0 .374-.371v-6.2a2.072 2.072 0 0 1 .169-.824 2.153 2.153 0 0 1 .784-.942 2.13 2.13 0 0 1 1.193-.364h.187a2.1 2.1 0 0 1 .828.168 2.161 2.161 0 0 1 .949.779A2.093 2.093 0 0 1 89 18.866v6.2a.373.373 0 0 0 .374.371h2.239a.373.373 0 0 0 .374-.371v-6.2a5.044 5.044 0 0 0-.406-1.981 5.238 5.238 0 0 0-1.865-2.244Zm39.342-.595h-.182a4.83 4.83 0 0 0-3.4 1.4 4.751 4.751 0 0 0-1.414 3.38v6.243a.366.366 0 0 0 .367.364h.826a.366.366 0 0 0 .367-.364v-6.243a3.211 3.211 0 0 1 .958-2.284 3.255 3.255 0 0 1 2.3-.951h.182a3.259 3.259 0 0 1 2.3.951 3.211 3.211 0 0 1 .958 2.284v6.243a.366.366 0 0 0 .367.364h.826a.366.366 0 0 0 .367-.364v-6.243a4.759 4.759 0 0 0-1.414-3.38 4.84 4.84 0 0 0-3.408-1.4Zm-24.447-.058a4.243 4.243 0 0 0-3.3 1.385.26.26 0 0 0-.084.077c-.356.444-.433.192-.447-.02v-4.671a.366.366 0 0 0-.367-.364l-.794.016a.366.366 0 0 0-.367.364v14.293a.366.366 0 0 0 .367.364h.743a.366.366 0 0 0 .367-.364v-.774c.007-.215.066-.561.4-.154a4.091 4.091 0 0 0 3.288 1.557c2.956 0 5.083-2.311 5.083-5.847.014-3.462-1.864-5.862-4.889-5.862Zm-.292 10.381c-2.42 0-3.583-2.246-3.583-4.491 0-3.178 1.77-4.512 3.651-4.512 2.1 0 3.56 1.757 3.56 4.491 0 2.844-1.635 4.513-3.628 4.513Zm12.048-10.381a6.8 6.8 0 0 0-3.722 1.057.364.364 0 0 0-.109.5l.335.541a.369.369 0 0 0 .511.115 5.514 5.514 0 0 1 2.873-.853 2.506 2.506 0 0 1 2.8 2.814h-.625c-1.948 0-6.9.453-6.9 4.233 0 2.223 1.948 3.312 3.829 3.312a4.019 4.019 0 0 0 3.532-1.979c.226-.2.237.125.237.125q-.007.166-.007.367v.858a.366.366 0 0 0 .367.364h.721a.366.366 0 0 0 .367-.364v-6.793c.001-2.807-1.5-4.297-4.209-4.297Zm2.686 5.9c0 1.933-1.3 4.521-3.448 4.521a2.233 2.233 0 0 1-2.508-2.112c0-2.467 3.537-2.9 5.307-2.9h.283a.366.366 0 0 1 .367.364Z"/>
  <g fill-rule="evenodd">
    <path fill="#fdda24" d="M17.224 4.037c0-.1.009-.174.009-.226a3.637 3.637 0 0 0-.1-.829c-.014-.066-.032-.131-.05-.2a3.576 3.576 0 0 0-.239-.625 4.9 4.9 0 0 0-.269-.455l-.052-.07a4.64 4.64 0 0 0-.228-.287c-.025-.029-.052-.061-.08-.091a3.38 3.38 0 0 0-.342-.326 3.54 3.54 0 0 0-.278-.215.632.632 0 0 1-.073-.052l-.087-.052a4.609 4.609 0 0 0-.242-.143 4.132 4.132 0 0 0-.622-.263l-.1-.032-.067-.02a3.718 3.718 0 0 0-.258-.063l-.073-.016c-.087-.016-.171-.029-.251-.038s-.135-.016-.2-.02-.112-.009-.164-.011-.089 0-.135 0a3.713 3.713 0 0 0-.636.05l-.055.009a4.256 4.256 0 0 0-1.022.317c-.059.025-.109.05-.169.081l-.055.029a5 5 0 0 0-.237.138 4.242 4.242 0 0 0-.575.441c-.023.02-.043.041-.064.061l-.068.066c-.107.115-.176.19-.23.256-.025.029-.046.059-.068.088a3.519 3.519 0 0 0-.233.333 4.473 4.473 0 0 0-.253.478c-.034.075-.066.149-.1.222l-.666 1.51c-.018.038-.036.084-.052.12s-.03.066-.043.1l-.237.539c-.048.106-.093.211-.135.3-.03.07-.066.149-.1.222l-.75 1.7c-.219.5-.5 1.132-.739 1.675-.046.1-.091.208-.132.3l-.255.58-.189.43-.415.942c-.1.22-.194.439-.287.652-.073.163-.141.321-.205.466l-.212.482c-.239.546-.509 1.154-.725 1.641l-.052.12c-.135.308-.3.677-.426.964-.226.512-.509 1.152-.759 1.723-.075.172-.151.34-.219.5-.214.487-.479 1.089-.725 1.641-.018.041-.036.079-.052.12-.08.183-.16.362-.233.525-.155.351-.363.819-.515 1.17L.379 23.387a5.772 5.772 0 0 0-.212.589 4.675 4.675 0 0 0-.139.711 2.956 2.956 0 0 0-.025.428 5.07 5.07 0 0 0 .046.672 3.381 3.381 0 0 0 .1.478c.023.091.05.181.087.287l.08.224a4.02 4.02 0 0 0 .281.575l.112.188c.03.048.078.113.121.177s.121.158.2.249l.057.07c.041.048.087.1.135.145.075.081.151.154.223.222l.064.059a4.315 4.315 0 0 0 .563.426c.162.1.285.17.4.224a5.464 5.464 0 0 0 .525.224c.032.011.062.016.091.025a4.456 4.456 0 0 0 1.551.242h.087c.084 0 .173-.011.265-.018.107-.011.21-.023.308-.038.066-.011.132-.02.2-.034s.137-.032.205-.05l.141-.036a5.084 5.084 0 0 0 .577-.208l.05-.025.1-.05a6.33 6.33 0 0 0 .249-.129l.073-.041a4.67 4.67 0 0 0 .349-.222 3.843 3.843 0 0 0 .545-.455c.185-.186.294-.315.333-.362.084-.1.162-.211.262-.358l.073-.111c.05-.079.08-.134.109-.186l.041-.077.046-.088a7.73 7.73 0 0 0 .178-.394l2.509-6.612c1.92-5.068 3.986-10.515 5.667-14.947l.032-.1a3.1 3.1 0 0 0 .16-.6 3.45 3.45 0 0 0 .041-.312.4.4 0 0 1-.015-.112Z"/>
    <path fill="#614b79" d="M27.942 31.174a7.022 7.022 0 0 0-.137-.869c-.046-.206-.141-.471-.208-.668l-.189-.5c-.205-.536-.429-1.125-.634-1.671-.078-.2-.153-.405-.223-.586l-.5-1.322c-.212-.557-.474-1.25-.716-1.881l-.251-.663c-.208-.548-.47-1.234-.7-1.847-.075-.2-.148-.392-.217-.568s-.153-.4-.233-.613l-.21-.55-.853-2.243c-.244-.641-.568-1.5-.812-2.137-.119-.31-.274-.722-.392-1.032a537.701 537.701 0 0 0-.761-1.992c-.217-.57-.506-1.333-.725-1.9l-.351-.921c-.05-.131-.1-.272-.16-.419l-.358-.944a41.512 41.512 0 0 0-.16-.419 4.716 4.716 0 0 0-.287-.607l-.007-.014a2.033 2.033 0 0 0-.091-.147c-.016-.023-.025-.043-.041-.068v-.007a3.44 3.44 0 0 0-.192-.269l-.05-.054a4.063 4.063 0 0 0-.4-.437l-.046-.038a6.14 6.14 0 0 0-.472-.383 3.971 3.971 0 0 0-.689-.383 1.21 1.21 0 0 0-.112-.05l-.1-.036a5.194 5.194 0 0 0-.315-.111c-.023-.007-.041-.016-.066-.023a3.926 3.926 0 0 0-.522-.115h-.007a4.934 4.934 0 0 0-.212-.027 3.63 3.63 0 0 0-.474-.025h-.007a3.963 3.963 0 0 0-.4.02l-.107.011h-.046l-.05.007-.059.009-.157.027h-.021q-.113.02-.212.048h-.023a3.022 3.022 0 0 0-.424.134c-.023.007-.043.016-.068.023a2.981 2.981 0 0 0-.338.149c-.08.038-.151.075-.226.115l-.137.077a2.85 2.85 0 0 0-.166.106l-.027.02c-.066.045-.137.1-.217.158l-.025.018-.068.059a3.9 3.9 0 0 0-.381.351c-.05.052-.084.1-.128.149a3.71 3.71 0 0 0-.212.26 3.458 3.458 0 0 0-.2.3l-.034.05c-.014.023-.021.043-.034.066a5.534 5.534 0 0 0-.2.385l-.031.047a3.1 3.1 0 0 0-.132.344l-.007.023a4.558 4.558 0 0 0-.157.627v.029c-.014.1-.03.222-.043.376a3.165 3.165 0 0 0-.009.471v.014a3.546 3.546 0 0 0 .048.478c.023.145.055.278.091.432v.027l6.153 22.829a5.273 5.273 0 0 0 .331.905 5.644 5.644 0 0 0 7.439 2.739 5.422 5.422 0 0 0 2.495-2.3 5.475 5.475 0 0 0 .561-1.5 5.384 5.384 0 0 0 .1-1.537"/>
    <path fill="#e0467b" d="M26.537 17.379v-.009a5.5 5.5 0 0 0 .021-.446v-.07c0-.113 0-.224-.011-.328 0-.045-.007-.086-.009-.129 0-.061-.011-.12-.018-.179s-.011-.106-.018-.154v-.009a3.517 3.517 0 0 0-.05-.272 4.653 4.653 0 0 0-.144-.548 3.324 3.324 0 0 0-.052-.147 5.015 5.015 0 0 0-.356-.815 3.065 3.065 0 0 0-.075-.131c-.075-.127-.153-.251-.235-.383a4.952 4.952 0 0 0-.356-.466l-.041-.05-.087-.1c-.046-.05-.089-.1-.132-.143a1.238 1.238 0 0 0-.062-.063 4.928 4.928 0 0 0-.461-.419s-.128-.106-.326-.247a3.833 3.833 0 0 0-.4-.265l-.014-.007-.014-.009a4.096 4.096 0 0 0-.194-.109 5.414 5.414 0 0 0-.607-.292 6.783 6.783 0 0 0-.962-.31l-.071-.018c-.141-.034-.274-.061-.388-.077s-.2-.027-.3-.039l-.137-.014c-.032 0-.064-.009-.1-.011h-.1l-.116-.009h-.463a5.307 5.307 0 0 0-.6.041l-.048.007q-.294.037-.616.109c-.1.023-.2.045-.287.07a6.176 6.176 0 0 0-.971.355l-10.8 4.989h-.009l-.032.016c-.089.043-.169.086-.246.127-.062.034-.123.066-.18.1h-.007c-.064.039-.128.077-.192.12l-.036.025-.148.106-.073.052c-.021.016-.039.034-.062.052-.062.048-.125.1-.2.161a4.643 4.643 0 0 0-.762.853c-.018.025-.03.05-.048.077a4.2 4.2 0 0 0-.474.919l-.025.075-.018.057a8.699 8.699 0 0 0-.111.378 2.747 2.747 0 0 0-.021.093 4.04 4.04 0 0 0-.1.822 4.3 4.3 0 0 0 .194 1.415c.032.091.064.186.1.285l.014.043c.021.054.046.106.068.158l.041.1c.036.075.073.145.109.215a7.198 7.198 0 0 0 .244.401l.03.048.021.027a4.118 4.118 0 0 0 .424.516l.036.034a4.6 4.6 0 0 0 .5.453l.139.1.071.052c.082.059.18.12.29.188a3.2 3.2 0 0 0 .244.131c.052.027.1.054.162.084l.027.014c.075.034.189.084.333.138l.05.023a4.895 4.895 0 0 0 .766.215c.032.007.066.011.1.016.052.009.107.016.164.025a5 5 0 0 0 .515.052h.328a4.051 4.051 0 0 0 .6-.045 4.737 4.737 0 0 0 .5-.093l11.658-2.8a.627.627 0 0 0 .062-.018h.014c-.025.007-.05.016-.075.02.139-.039.328-.081.465-.131a.99.99 0 0 0 .1-.039c.132-.045.274-.1.422-.161.084-.034.166-.07.237-.1l.046-.023.021-.009.023-.014a6.115 6.115 0 0 0 1.152-.731l.034-.029.016-.011c.027-.023.05-.048.078-.072.139-.118.269-.238.388-.36.052-.054.1-.111.153-.165a6.034 6.034 0 0 0 .718-.962c.016-.027.03-.054.046-.084a5.29 5.29 0 0 0 .436-.967c.016-.052.034-.106.05-.163l.014-.05a4.267 4.267 0 0 0 .216-1.062Z"/>
  </g>
</svg>
